<svg width="478" height="602" viewBox="0 0 478 602" fill="none" xmlns="http://www.w3.org/2000/svg">
<path d="M82.0404 35.9629L80.0497 36.4659C66.2927 16.3225 54.4697 4.01571 41.6838 4.01571C32.7174 4.01571 24.9083 10.1731 24.9083 18.9996C24.9083 31.3226 40.1867 36.8472 55.9668 44.6434C72.4105 52.9668 89.3478 64.1135 89.3478 88.5972C89.3478 117.397 66.762 126.888 42.1774 126.888C27.0609 126.888 12.7778 123.059 4.95253 118.898L0 83.251L1.99072 82.748C19.5916 110.882 31.8839 122.873 46.8305 122.873C58.791 122.873 66.0985 115.214 66.0985 105.39C66.0985 91.2419 50.9819 84.9141 35.3475 77.2558C18.7662 68.9567 1.65894 59.1081 1.65894 36.4659C1.65894 9.49169 25.58 0 51.1519 0C59.8986 0.032298 68.6038 1.20771 77.0474 3.49651L82.0404 35.9629Z" fill="#111111"/>
<path d="M138.849 124.374H98.654V124.041C100.976 116.383 102.805 110.558 102.805 96.5718V78.2537C102.805 65.1032 100.976 57.6072 94.0009 49.2838V48.9511L134.034 38.9402V55.9766L134.697 56.147C137.683 49.9895 146.836 39.8326 162.268 39.8326C174.407 39.8326 183.859 45.9901 186.545 55.9847L187.209 56.1551C190.171 49.949 199.299 39.7515 214.747 39.7515C229.014 39.7515 239.655 48.4482 239.655 62.4666V96.5394C239.655 110.022 241.314 116.35 243.807 124.008V124.341H203.62V124.008C206.274 116.35 207.771 110.217 207.771 96.872V62.1016C207.771 56.942 205.117 53.4455 199.631 53.4455C193.966 53.4455 189.499 57.1124 187.176 61.769V96.5394C187.176 110.022 188.835 116.35 191.328 124.008V124.341H151.133V124.008C153.787 116.35 155.284 110.217 155.284 96.872V62.1016C155.284 56.942 152.63 53.4455 147.143 53.4455C141.479 53.4455 137.012 57.1124 134.689 61.769V96.7341C134.689 110.055 136.518 116.383 138.841 124.041L138.849 124.374Z" fill="#111111"/>
<path d="M294.303 112.716C289.982 120.212 282.011 126.864 271.386 126.864C261.092 126.864 252.118 121.534 252.118 109.016C252.118 90.3576 274.372 82.5452 293.802 78.1888V71.861C293.802 61.5418 289.318 57.5423 277.528 57.5423C271.054 57.5423 263.771 58.7105 256.269 60.3736L255.606 59.0431C264.24 49.6164 278.021 39.7515 297.799 39.7515C315.902 39.7515 325.864 48.2453 325.864 62.564V102.859C325.864 106.859 327.692 110.355 333.147 110.355C335.054 110.372 336.937 109.915 338.625 109.025L338.957 110.022C336.796 115.515 330.322 126.84 314.21 126.84C302.938 126.872 295.792 121.21 294.303 112.716ZM293.802 82.0828C283.176 85.4089 279.688 92.2397 279.688 98.7298C279.688 105.22 283.176 109.519 290.152 109.519C291.385 109.552 292.615 109.396 293.802 109.057V82.0828Z" fill="#111111"/>
<path d="M344.961 124.374V124.041C347.284 116.383 349.113 110.558 349.113 96.5718V78.2537C349.113 65.1032 347.284 57.6072 340.308 49.2838V48.9511L380.341 38.9402V58.2725L380.511 58.4428C387.317 51.4498 394.964 38.2994 410.906 39.784L406.423 71.5852H405.614C400.961 64.4299 391.493 59.2622 387.179 59.2622C384.857 59.2622 382.696 60.763 381.037 62.7587V96.726C381.037 110.047 382.866 116.375 385.189 124.033V124.365L344.961 124.374Z" fill="#111111"/>
<path d="M424.849 102.218V46.4525H415.381V44.7894L454.743 22.8125H456.733V42.453H475.5V46.4525H456.733V101.407C456.733 112.399 462.875 115.06 468.694 115.06C474.674 115.06 477.498 112.229 477.498 112.229L478 112.732C474.682 119.222 465.052 126.88 449.766 126.88C434.479 126.88 424.849 119.376 424.849 102.218Z" fill="#111111"/>
<path d="M49.4929 281.725H0.809237V281.392C5.46235 268.736 7.62301 261.581 7.62301 243.928V197.646C7.62301 180.001 5.46235 172.838 0.809237 160.182V159.817H91.8403L97.9824 193.282L95.9917 193.785C86.6935 184.966 69.5944 165.845 60.6199 165.017L42.8167 163.354V216.605H50.2941C59.5922 216.605 68.5666 206.619 75.7041 200.453H77.6867V238.249H75.7365C68.5909 232.092 59.7945 220.767 50.1565 220.767H42.8895V244.074C42.8895 261.054 45.0502 268.712 49.5334 281.392L49.4929 281.725Z" fill="#111111"/>
<path d="M103.137 281.725V281.392C105.46 273.734 107.289 267.909 107.289 253.923V235.613C107.289 222.462 105.46 214.966 98.4841 206.643V206.31L138.517 196.324V215.632L138.687 215.802C145.493 208.809 153.132 195.659 169.082 197.143L164.599 228.944H163.789C159.136 221.781 149.676 216.621 145.355 216.621C143.033 216.621 140.872 218.122 139.213 220.118V254.085C139.213 267.406 141.042 273.734 143.364 281.392V281.725H103.137Z" fill="#111111"/>
<path d="M232.016 267.576H231.021C228.367 272.444 218.729 284.223 203.782 284.223C189.329 284.223 180.695 274.066 180.695 258.58V219.793C180.695 208.971 178.534 205.475 174.884 200.477V199.812H212.587V260.413C212.587 264.745 214.415 270.067 221.059 270.067C225.542 270.067 228.699 266.903 231.191 262.912V219.461C231.191 208.639 229.03 205.142 225.381 200.145V199.812H263.083V243.766C263.083 262.912 265.405 268.242 271.717 275.235V275.567L232.065 284.223L232.016 267.576Z" fill="#111111"/>
<path d="M278.855 281.392C281.177 273.734 283.006 267.406 283.006 253.923V235.613C283.006 222.462 281.177 214.966 274.202 206.643V206.31L314.898 196.324V254.093C314.898 267.414 316.727 273.742 319.05 281.4V281.733H278.855V281.392ZM295.46 189.655C286.324 189.655 279.187 182.354 279.187 173.008C279.173 170.854 279.583 168.718 280.394 166.723C281.205 164.728 282.4 162.912 283.912 161.381C285.424 159.85 287.222 158.633 289.204 157.799C291.185 156.965 293.311 156.532 295.46 156.524C304.929 156.524 312.568 164.02 312.568 173.008C312.568 182.33 304.929 189.655 295.46 189.655Z" fill="#111111"/>
<path d="M333.826 259.602V203.812H324.358V202.149L363.72 180.172H365.71V199.812H384.477V203.812H365.718V258.79C365.718 269.775 371.861 272.444 377.679 272.444C383.659 272.444 386.483 269.613 386.483 269.613L386.985 270.115C383.667 276.606 374.037 284.264 358.751 284.264C343.464 284.264 333.826 276.735 333.826 259.602Z" fill="#111111"/>
<path d="M82.0404 350.673L80.0497 351.176C66.2927 331.033 54.4697 318.726 41.6838 318.726C32.7174 318.726 24.9083 324.883 24.9083 333.71C24.9083 346.033 40.1867 351.557 55.9668 359.354C72.4105 367.677 89.3478 378.824 89.3478 403.307C89.3478 432.107 66.762 441.599 42.1774 441.599C27.0609 441.599 12.7778 437.769 4.95253 433.608L0 397.961L1.99072 397.458C19.5916 425.593 31.8839 437.583 46.8305 437.583C58.791 437.583 66.0985 429.925 66.0985 420.1C66.0985 405.944 50.9819 399.624 35.3475 391.966C18.7662 383.643 1.65894 373.818 1.65894 351.176C1.65894 324.202 25.5719 314.71 51.1519 314.71C59.8986 314.742 68.6038 315.918 77.0474 318.207L82.0404 350.673Z" fill="#111111"/>
<path d="M138.185 427.434C133.864 434.93 125.893 441.591 115.268 441.591C104.974 441.591 95.9997 436.261 95.9997 423.743C95.9997 405.084 118.254 397.272 137.683 392.915V386.587C137.683 376.268 133.2 372.269 121.41 372.269C114.936 372.269 107.653 373.437 100.151 375.1L99.4875 373.77C108.122 364.278 121.911 354.454 141.673 354.454C159.776 354.454 169.737 362.947 169.737 377.266V417.561C169.737 421.561 171.566 425.049 177.02 425.049C178.928 425.066 180.81 424.609 182.499 423.719L182.831 424.716C180.67 430.209 174.196 441.534 158.084 441.534C146.82 441.582 139.674 435.92 138.185 427.434ZM137.683 423.775V396.793C127.058 400.119 123.57 406.95 123.57 413.44C123.57 419.93 127.05 424.286 134.034 424.286C135.27 424.301 136.5 424.126 137.683 423.767V423.775Z" fill="#111111"/>
<path d="M189.507 438.751C191.83 431.093 193.658 425.268 193.658 411.282V348.677C193.658 335.527 191.83 328.031 184.854 319.708V319.375L225.542 309.388V411.444C225.542 424.765 227.371 431.093 229.694 438.751V439.084H189.507V438.751Z" fill="#111111"/>
<path d="M280.182 427.434C275.861 434.93 267.89 441.591 257.265 441.591C246.971 441.591 237.997 436.261 237.997 423.743C237.997 405.084 260.251 397.272 279.68 392.915V386.587C279.68 376.268 275.197 372.269 263.407 372.269C256.933 372.269 249.65 373.437 242.148 375.1L241.484 373.77C250.119 364.278 263.908 354.454 283.67 354.454C301.773 354.454 311.734 362.947 311.734 377.266V417.561C311.734 421.561 313.563 425.049 319.017 425.049C320.925 425.065 322.807 424.608 324.496 423.719L324.828 424.716C322.667 430.209 316.193 441.534 300.081 441.534C288.825 441.582 281.679 435.92 280.182 427.434ZM279.68 423.775V396.793C269.055 400.119 265.567 406.95 265.567 413.44C265.567 419.93 269.055 424.286 276.031 424.286C277.269 424.301 278.503 424.126 279.688 423.767L279.68 423.775Z" fill="#111111"/>
<path d="M388.806 426.266L388.142 426.096C382.995 434.249 374.385 441.582 361.567 441.582C342.954 441.582 330.678 425.43 330.678 401.953C330.678 376.317 345.787 354.519 374.677 354.519C379.308 354.547 383.922 355.091 388.434 356.141V348.84C388.434 335.519 386.605 328.031 379.629 319.699V319.367L420.317 309.38V404.451C420.317 420.936 423.805 426.096 429.284 432.594V432.926L388.757 441.582L388.806 426.266ZM388.434 421.934V381.809C388.434 366.655 386.273 357.471 377.97 357.471C369.497 357.471 363.525 367.296 363.525 394.789C363.525 417.431 368.51 426.753 377.145 426.753C380.997 426.761 386.143 424.765 388.434 421.934Z" fill="#111111"/>
<path d="M0.809237 596.443V596.11C5.46235 583.455 7.62301 576.299 7.62301 558.647V512.364C7.6392 494.712 5.47853 487.564 0.809237 474.901V474.584H59.7864C90.675 474.584 102.304 485.569 102.304 502.386C102.304 514.376 96.987 527.859 75.3966 533.019C97.8205 537.513 107.45 548.838 107.45 564.82C107.45 584.469 94.1628 596.459 62.6107 596.459L0.809237 596.443ZM47.8097 531.007C63.4442 530.845 68.7851 517.857 68.7851 505.201C68.7851 492.051 65.4673 478.43 48.8536 478.43C47.0247 478.43 45.034 478.6 42.8734 478.762V531.04L47.8097 531.007ZM71.2128 563.311C71.2128 547.824 66.3574 535.177 47.9635 535.177H42.8895V592.776C44.982 593.048 47.0922 593.16 49.2016 593.109C65.1031 593.109 71.2128 580.129 71.2128 563.311Z" fill="#111111"/>
<path d="M271.208 596.443H246.931V596.11C254.57 589.62 260.048 584.956 272.017 568.471L278.159 560.147L267.72 542C257.256 523.681 254.27 520.015 248.436 514.855V514.522H296.763V514.855C294.441 519.187 294.441 528.346 302.08 541.497L304.071 544.831L305.398 542.997C315.028 530.512 315.691 520.023 311.208 514.855V514.522H335.485V514.855C327.846 521.345 322.368 526.01 310.399 542.494L306.078 548.49L317.868 568.966C328.332 587.276 331.156 590.943 336.966 596.102V596.435H288.817V596.102C291.309 591.77 290.977 582.619 283.5 569.461L280.182 563.636L277.026 567.968C267.396 580.453 266.733 590.943 271.216 596.11L271.208 596.443Z" fill="#111111"/>
<path d="M203.62 479.062V592.938L140.807 579.236V492.797L203.604 479.071M210.887 470.009L133.524 486.915V585.077L210.887 601.992V470.001V470.009Z" fill="#111111"/>
<path d="M210.903 602L226.53 585.093V486.915L210.903 470.001V602Z" fill="#111111"/>
<path d="M210.903 602L133.54 585.093V558.2L210.903 541.286L210.903 602Z" fill="#111111"/>
<path d="M179.295 542.43L198.894 538.146V515.472C198.186 515.627 197.451 515.621 196.745 515.454C196.039 515.287 195.379 514.964 194.814 514.508C194.249 514.052 193.793 513.475 193.479 512.819C193.166 512.163 193.003 511.445 193.003 510.718L179.295 513.711V542.43Z" fill="#111111"/>
<path d="M179.295 509.006L198.886 504.722V495.198L179.295 499.482V509.006Z" fill="#111111"/>
</svg>
