<svg width="46" height="45" viewBox="0 0 46 45" fill="none" xmlns="http://www.w3.org/2000/svg">
<g clip-path="url(#clip0_10_129)">
<path d="M31.4375 2.8125C32.1834 2.8125 32.8988 3.10882 33.4262 3.63626C33.9537 4.16371 34.25 4.87908 34.25 5.625V39.375C34.25 40.1209 33.9537 40.8363 33.4262 41.3637C32.8988 41.8912 32.1834 42.1875 31.4375 42.1875H14.5625C13.8166 42.1875 13.1012 41.8912 12.5738 41.3637C12.0463 40.8363 11.75 40.1209 11.75 39.375V5.625C11.75 4.87908 12.0463 4.16371 12.5738 3.63626C13.1012 3.10882 13.8166 2.8125 14.5625 2.8125H31.4375ZM14.5625 0C13.0707 0 11.6399 0.592632 10.585 1.64752C9.53013 2.70242 8.9375 4.13316 8.9375 5.625V39.375C8.9375 40.8668 9.53013 42.2976 10.585 43.3525C11.6399 44.4074 13.0707 45 14.5625 45H31.4375C32.9293 45 34.3601 44.4074 35.415 43.3525C36.4699 42.2976 37.0625 40.8668 37.0625 39.375V5.625C37.0625 4.13316 36.4699 2.70242 35.415 1.64752C34.3601 0.592632 32.9293 0 31.4375 0L14.5625 0Z" fill="#111111"/>
<path d="M23 39.375C23.7459 39.375 24.4613 39.0787 24.9887 38.5512C25.5162 38.0238 25.8125 37.3084 25.8125 36.5625C25.8125 35.8166 25.5162 35.1012 24.9887 34.5738C24.4613 34.0463 23.7459 33.75 23 33.75C22.2541 33.75 21.5387 34.0463 21.0113 34.5738C20.4838 35.1012 20.1875 35.8166 20.1875 36.5625C20.1875 37.3084 20.4838 38.0238 21.0113 38.5512C21.5387 39.0787 22.2541 39.375 23 39.375Z" fill="#111111"/>
</g>
<defs>
<clipPath id="clip0_10_129">
<rect width="45" height="45" fill="white" transform="translate(0.5)"/>
</clipPath>
</defs>
</svg>
