<svg width="48" height="24" viewBox="0 0 48 24" fill="none" xmlns="http://www.w3.org/2000/svg">
<path d="M2 10.4C1.11634 10.4 0.4 11.1163 0.4 12C0.4 12.8837 1.11634 13.6 2 13.6V10.4ZM47.1314 13.1314C47.7562 12.5065 47.7562 11.4935 47.1314 10.8686L36.949 0.686292C36.3242 0.0614529 35.3111 0.0614529 34.6863 0.686292C34.0615 1.31113 34.0615 2.32419 34.6863 2.94903L43.7373 12L34.6863 21.051C34.0615 21.6758 34.0615 22.6889 34.6863 23.3137C35.3111 23.9385 36.3242 23.9385 36.949 23.3137L47.1314 13.1314ZM2 13.6H46V10.4H2V13.6Z" fill="#1D1D1D"/>
</svg>
